<mxfile host="app.diagrams.net" agent="Mozilla/5.0 (Windows NT 10.0; Win64; x64; rv:128.0) Gecko/20100101 Firefox/128.0" version="27.1.4">
  <diagram name="Page-1" id="1LirQ6P7Ndoqrh--wPLK">
    <mxGraphModel dx="786" dy="427" grid="1" gridSize="10" guides="1" tooltips="1" connect="1" arrows="0" fold="1" page="1" pageScale="1" pageWidth="850" pageHeight="1100" math="0" shadow="0">
      <root>
        <mxCell id="0" />
        <mxCell id="1" parent="0" />
        <mxCell id="DSDSBBPMzrUWrpBAzDHZ-1" value="" style="sketch=0;points=[[0,0,0],[0.25,0,0],[0.5,0,0],[0.75,0,0],[1,0,0],[0,1,0],[0.25,1,0],[0.5,1,0],[0.75,1,0],[1,1,0],[0,0.25,0],[0,0.5,0],[0,0.75,0],[1,0.25,0],[1,0.5,0],[1,0.75,0]];outlineConnect=0;fontColor=#232F3E;fillColor=#01A88D;strokeColor=#ffffff;dashed=0;verticalLabelPosition=bottom;verticalAlign=top;align=center;html=1;fontSize=12;fontStyle=0;aspect=fixed;shape=mxgraph.aws4.resourceIcon;resIcon=mxgraph.aws4.bedrock;" vertex="1" parent="1">
          <mxGeometry x="161" y="240" width="78" height="78" as="geometry" />
        </mxCell>
        <mxCell id="DSDSBBPMzrUWrpBAzDHZ-2" value="" style="sketch=0;points=[[0,0,0],[0.25,0,0],[0.5,0,0],[0.75,0,0],[1,0,0],[0,1,0],[0.25,1,0],[0.5,1,0],[0.75,1,0],[1,1,0],[0,0.25,0],[0,0.5,0],[0,0.75,0],[1,0.25,0],[1,0.5,0],[1,0.75,0]];outlineConnect=0;fontColor=#232F3E;fillColor=#7AA116;strokeColor=#ffffff;dashed=0;verticalLabelPosition=bottom;verticalAlign=top;align=center;html=1;fontSize=12;fontStyle=0;aspect=fixed;shape=mxgraph.aws4.resourceIcon;resIcon=mxgraph.aws4.s3;" vertex="1" parent="1">
          <mxGeometry x="161" y="81" width="78" height="78" as="geometry" />
        </mxCell>
        <mxCell id="DSDSBBPMzrUWrpBAzDHZ-3" value="" style="rounded=1;whiteSpace=wrap;html=1;fillColor=#fff2cc;strokeColor=#d6b656;" vertex="1" parent="1">
          <mxGeometry x="360" y="40" width="240" height="390" as="geometry" />
        </mxCell>
        <mxCell id="DSDSBBPMzrUWrpBAzDHZ-4" value="" style="sketch=0;points=[[0,0,0],[0.25,0,0],[0.5,0,0],[0.75,0,0],[1,0,0],[0,1,0],[0.25,1,0],[0.5,1,0],[0.75,1,0],[1,1,0],[0,0.25,0],[0,0.5,0],[0,0.75,0],[1,0.25,0],[1,0.5,0],[1,0.75,0]];outlineConnect=0;fontColor=#232F3E;fillColor=#ED7100;strokeColor=#ffffff;dashed=0;verticalLabelPosition=bottom;verticalAlign=top;align=center;html=1;fontSize=12;fontStyle=0;aspect=fixed;shape=mxgraph.aws4.resourceIcon;resIcon=mxgraph.aws4.lambda;" vertex="1" parent="1">
          <mxGeometry x="680" y="200" width="78" height="78" as="geometry" />
        </mxCell>
        <mxCell id="DSDSBBPMzrUWrpBAzDHZ-5" value="&lt;div&gt;&lt;font style=&quot;font-size: 18px;&quot;&gt;&lt;b&gt;/get_flights&lt;/b&gt;&lt;/font&gt;&lt;/div&gt;&quot;engine&quot;: &quot;google_flights&quot;&lt;br&gt;&quot;departure_id&quot;&lt;br&gt;&quot;arrival_id&quot;&lt;br&gt;&quot;outbound_date&quot;&lt;br&gt;&quot;return_date&quot;&lt;br&gt;&quot;currency&quot;: &quot;USD&quot;&lt;br&gt;&quot;hl&quot;: &quot;en&quot;&lt;br&gt;&quot;api_key&quot;: API_KEY_FOR_SERPAPI" style="rounded=1;whiteSpace=wrap;html=1;" vertex="1" parent="1">
          <mxGeometry x="370" y="50" width="220" height="180" as="geometry" />
        </mxCell>
        <mxCell id="DSDSBBPMzrUWrpBAzDHZ-7" value="&lt;div&gt;&lt;font style=&quot;font-size: 18px;&quot;&gt;&lt;b&gt;/get_hotels&lt;/b&gt;&lt;/font&gt;&lt;/div&gt;&quot;engine&quot;: &quot;google_hotels&quot;&lt;br&gt;&quot;check_in_date&quot;&lt;br&gt;&quot;check_out_date&quot;&lt;br&gt;&quot;adults&quot;&lt;br&gt;&quot;currency&quot;: &quot;USD&quot;&lt;br&gt;&quot;gl&quot;:&lt;br&gt;&quot;hl&quot;: &quot;en&quot;&lt;br&gt;api_key&quot;: API_KEY_FOR_SERPAPI" style="rounded=1;whiteSpace=wrap;html=1;" vertex="1" parent="1">
          <mxGeometry x="370" y="240" width="220" height="180" as="geometry" />
        </mxCell>
        <mxCell id="DSDSBBPMzrUWrpBAzDHZ-8" value="" style="endArrow=classic;html=1;rounded=0;exitX=1;exitY=0.5;exitDx=0;exitDy=0;exitPerimeter=0;entryX=-0.008;entryY=0.203;entryDx=0;entryDy=0;entryPerimeter=0;" edge="1" parent="1" source="DSDSBBPMzrUWrpBAzDHZ-2" target="DSDSBBPMzrUWrpBAzDHZ-3">
          <mxGeometry width="50" height="50" relative="1" as="geometry">
            <mxPoint x="380" y="280" as="sourcePoint" />
            <mxPoint x="430" y="230" as="targetPoint" />
          </mxGeometry>
        </mxCell>
        <mxCell id="DSDSBBPMzrUWrpBAzDHZ-9" value="" style="endArrow=classic;startArrow=classic;html=1;rounded=0;exitX=1;exitY=0.5;exitDx=0;exitDy=0;exitPerimeter=0;" edge="1" parent="1" source="DSDSBBPMzrUWrpBAzDHZ-1">
          <mxGeometry width="50" height="50" relative="1" as="geometry">
            <mxPoint x="380" y="280" as="sourcePoint" />
            <mxPoint x="358" y="279" as="targetPoint" />
          </mxGeometry>
        </mxCell>
        <mxCell id="DSDSBBPMzrUWrpBAzDHZ-10" value="" style="endArrow=classic;html=1;rounded=0;exitX=1;exitY=0.513;exitDx=0;exitDy=0;exitPerimeter=0;" edge="1" parent="1" source="DSDSBBPMzrUWrpBAzDHZ-3">
          <mxGeometry width="50" height="50" relative="1" as="geometry">
            <mxPoint x="380" y="280" as="sourcePoint" />
            <mxPoint x="680" y="239" as="targetPoint" />
          </mxGeometry>
        </mxCell>
        <mxCell id="DSDSBBPMzrUWrpBAzDHZ-11" value="OpenAPI Schema" style="text;strokeColor=none;align=center;fillColor=none;html=1;verticalAlign=middle;whiteSpace=wrap;rounded=0;" vertex="1" parent="1">
          <mxGeometry x="250" y="129" width="80" height="21" as="geometry" />
        </mxCell>
        <mxCell id="DSDSBBPMzrUWrpBAzDHZ-12" value="S3" style="text;strokeColor=none;align=center;fillColor=none;html=1;verticalAlign=middle;whiteSpace=wrap;rounded=0;" vertex="1" parent="1">
          <mxGeometry x="160" y="159" width="80" height="21" as="geometry" />
        </mxCell>
        <mxCell id="DSDSBBPMzrUWrpBAzDHZ-13" value="Bedrock Travel Agent" style="text;html=1;align=center;verticalAlign=middle;whiteSpace=wrap;rounded=0;" vertex="1" parent="1">
          <mxGeometry x="159" y="320" width="80" height="30" as="geometry" />
        </mxCell>
        <mxCell id="DSDSBBPMzrUWrpBAzDHZ-14" value="Action Group" style="text;strokeColor=none;align=center;fillColor=none;html=1;verticalAlign=middle;whiteSpace=wrap;rounded=0;" vertex="1" parent="1">
          <mxGeometry x="435" y="440" width="90" height="20" as="geometry" />
        </mxCell>
        <mxCell id="DSDSBBPMzrUWrpBAzDHZ-15" value="&lt;div&gt;Booking Lambda&lt;/div&gt;&lt;div&gt;to perform GoogleSearch&lt;br&gt;&lt;/div&gt;" style="text;strokeColor=none;align=center;fillColor=none;html=1;verticalAlign=middle;whiteSpace=wrap;rounded=0;" vertex="1" parent="1">
          <mxGeometry x="662" y="290" width="114" height="30" as="geometry" />
        </mxCell>
      </root>
    </mxGraphModel>
  </diagram>
</mxfile>
